<svg width="570" height="583" viewBox="0 0 570 583" fill="none" xmlns="http://www.w3.org/2000/svg">
<path fill-rule="evenodd" clip-rule="evenodd" d="M471.66 277.263L485.572 257.982L488.757 204.249L478.654 219.138L385.152 155.697L471.66 277.263ZM569.355 205.937L519.715 274.737L517.632 307.706L490.275 315.541L418.689 414.758L537.3 500.336L518.015 527.065L369 419.55L449.781 307.588L342.576 157.73L306.051 211.561L414.126 284.89L395.621 312.165L287.545 238.836L250.114 294.004L343.586 476.532L295.914 500.945L63.5731 349.141L59.906 351.019L169.765 565.546L136.394 582.635L36.7216 388H0V72H126.29C195.503 72 240.446 108.306 239.997 168.817C239.997 193.681 231.944 214.646 217.665 230.639L230.412 255.531L319.067 124.868L282 73.0542L318.835 62.5044L340.615 93.1104L344.082 88L489.787 186.861L500.238 10.5495L537.073 -0.000238072L524.152 204.511L538.95 184L569.355 205.937ZM187.073 253.155L206.407 290.91L181 328.357L212.366 349.638L226.109 329.383L287.68 449.616L284.38 451.306L52.0393 299.502L39.9994 305.668V265.634H126.29C149.362 265.634 169.959 261.277 187.073 253.155ZM39.9994 107.858V229.328H126.29C172.132 229.328 199.548 205.572 199.548 168.817C199.548 131.614 172.132 107.858 126.29 107.858H39.9994Z" fill="white"/>
</svg>
