<svg width="111" height="24" viewBox="0 0 111 24" fill="none" xmlns="http://www.w3.org/2000/svg">
<g clip-path="url(#clip0_874_1895)">
<path d="M0 6.73572H7.58889C8.84084 6.709 10.0842 6.94823 11.2369 7.43762C12.2184 7.85633 13.0573 8.55091 13.6517 9.43708C14.2274 10.347 14.5219 11.4065 14.4985 12.483C14.5223 13.5736 14.2281 14.6477 13.6517 15.5739C13.0579 16.476 12.216 17.1872 11.2273 17.6217C10.0735 18.1281 8.82287 18.3764 7.56311 18.3493H3.97642V24H0V6.73572ZM7.24758 15.2938C8.09731 15.3387 8.93423 15.072 9.60123 14.5436C9.88886 14.2956 10.1167 13.9858 10.2678 13.6373C10.4189 13.2888 10.4893 12.9108 10.4738 12.5313C10.4902 12.1531 10.4203 11.7761 10.2691 11.4291C10.1179 11.082 9.8894 10.7741 9.60123 10.5286C8.93118 10.0072 8.09534 9.74535 7.24758 9.79126H3.97642V15.2938H7.24758Z" fill="#0F0F0F"/>
<path d="M21.772 6.73572H26.4277L32.9766 18.7872H33.2181V6.73572H37.0496V24H32.3938L25.8481 11.971H25.6034V24H21.772V6.73572Z" fill="#0F0F0F"/>
<path d="M45.3789 6.73572H57.746V10.1776H49.4294V13.9834H56.7027V17.1452H49.4294V24.0097H45.3789V6.73572Z" fill="#0F0F0F"/>
<path d="M65.0194 6.73572H69.044V20.5549H76.9228V24H65.0098L65.0194 6.73572Z" fill="#0F0F0F"/>
<path d="M80.6709 6.73572H84.7923L89.1679 21.0411H89.4125L93.7753 6.73572H97.9223L92.4488 24H86.1703L80.6709 6.73572Z" fill="#0F0F0F"/>
<path d="M105.685 2.25382C106.328 2.25382 106.945 2.50925 107.399 2.96393C107.854 3.41861 108.11 4.03528 108.11 4.67829C108.11 5.3216 107.854 5.93861 107.4 6.39379C106.945 6.84898 106.328 7.10513 105.685 7.10598C105.042 7.10513 104.425 6.84898 103.971 6.39379C103.516 5.93861 103.261 5.3216 103.261 4.67829C103.262 4.03554 103.517 3.41937 103.972 2.96487C104.426 2.51038 105.042 2.25467 105.685 2.25382ZM105.685 0C104.445 0.00085287 103.255 0.494018 102.378 1.37118C101.501 2.24835 101.008 3.43779 101.007 4.67829C101.007 5.91935 101.5 7.10962 102.377 7.98748C103.254 8.86535 104.444 9.35895 105.685 9.35981C106.3 9.35981 106.908 9.23869 107.476 9.00338C108.044 8.76808 108.56 8.42319 108.994 7.98843C109.429 7.55367 109.773 7.03756 110.008 6.46959C110.243 5.90162 110.364 5.29293 110.363 4.67829C110.363 3.43753 109.87 2.24759 108.993 1.37024C108.116 0.49289 106.926 0 105.685 0Z" fill="#E72A63"/>
</g>
<defs>
<clipPath id="clip0_874_1895">
<rect width="110.367" height="24" fill="white"/>
</clipPath>
</defs>
</svg>
