<svg width="16" height="16" viewBox="0 0 16 16" fill="none" xmlns="http://www.w3.org/2000/svg">
<path d="M7.97758 3.85349C9.07452 3.85349 10.1268 4.29047 10.9024 5.06827C11.6781 5.84608 12.1137 6.90101 12.1137 8.00099C12.1137 9.10097 11.6781 10.1559 10.9024 10.9337C10.1268 11.7115 9.07452 12.1485 7.97758 12.1485C6.88065 12.1485 5.82883 11.7115 5.05318 10.9337C4.27753 10.1559 3.84146 9.10097 3.84146 8.00099C3.84146 6.90101 4.27753 5.84608 5.05318 5.06827C5.82883 4.29047 6.88065 3.85349 7.97758 3.85349ZM7.97758 0.000976563C5.86534 0.0127115 3.84305 0.859329 2.34945 2.35708C0.855839 3.85484 0.0117025 5.88288 0 8.00099C0.0117025 10.1191 0.855839 12.1471 2.34945 13.6449C3.84305 15.1426 5.86534 15.9892 7.97758 16.001C10.0976 16.001 12.1317 15.1596 13.6349 13.6606C15.1381 12.1616 15.9882 10.1268 16 8.00099C15.9882 5.87516 15.1381 3.84042 13.6349 2.3414C12.1317 0.842379 10.0976 0.000943757 7.97758 0.000976563Z" fill="#E72A63"/>
</svg>
