<svg width="111" height="24" fill="none" xmlns="http://www.w3.org/2000/svg"><g clip-path="url(#clip0_416_390)"><path d="M0 6.736h7.589a8.851 8.851 0 013.648.702 5.512 5.512 0 012.415 2c.575.909.87 1.968.847 3.045a5.618 5.618 0 01-.847 3.09 5.6 5.6 0 01-2.425 2.049 8.655 8.655 0 01-3.664.727H3.976V24H0V6.736zm7.248 8.558a3.493 3.493 0 002.353-.75 2.52 2.52 0 00.873-2.013A2.49 2.49 0 009.6 10.53a3.522 3.522 0 00-2.353-.738H3.976v5.503h3.272zM21.772 6.736h4.656l6.549 12.051h.241V6.736h3.832V24h-4.656l-6.546-12.029h-.245V24h-3.831V6.736zM45.379 6.736h12.367v3.442h-8.317v3.805h7.274v3.162h-7.274v6.865h-4.05V6.736zM65.02 6.736h4.024v13.819h7.879V24H65.01l.01-17.264zM80.67 6.736h4.122l4.376 14.305h.244l4.363-14.305h4.147L92.45 24H86.17l-5.5-17.264z" fill="#fff"/><path d="M105.685 2.254a2.422 2.422 0 012.425 2.424 2.43 2.43 0 01-2.425 2.428 2.426 2.426 0 010-4.852zm0-2.254a4.682 4.682 0 00-4.678 4.678 4.683 4.683 0 004.678 4.682 4.677 4.677 0 004.678-4.682A4.68 4.68 0 00105.685 0z" fill="#E72A63"/></g><defs><clipPath id="clip0_416_390"><path fill="#fff" d="M0 0h110.367v24H0z"/></clipPath></defs></svg>